<?xml version="1.0" encoding="UTF-8"?>
<svg id="_レイヤー_1" data-name="レイヤー 1" xmlns="http://www.w3.org/2000/svg" viewBox="0 0 326.46 69.32">
  <defs>
    <style>
      .cls-1 {
        fill: #231815;
      }
    </style>
  </defs>
  <path class="cls-1" d="M34.16,50.57c0-.21.03-.5.1-.86.07-.36.15-.73.25-1.11.1-.38.2-.75.31-1.1.11-.35.19-.63.25-.85L46.93,7.71c.1-.14.21-.25.32-.35.1-.1.23-.18.4-.25.17-.07.37-.1.6-.1h.5c.43,0,.79.07,1.08.22s.53.34.7.59c.18.24.3.53.37.85.07.32.1.67.1,1.04,0,.31-.02.64-.07.98-.05.34-.1.67-.16,1s-.12.62-.19.89c-.07.27-.12.49-.16.64l-6.09,20.8,2.78-.26c3.11-.68,6.27-1.39,9.51-2.12,3.23-.73,6.4-1.44,9.51-2.12.35-.18.66-.54.94-1.08.27-.55.54-1.26.81-2.14s.55-1.91.86-3.09c.31-1.18.69-2.49,1.14-3.94l.62-2.02c.25-.98.48-1.98.69-3s.45-1.96.75-2.8c.29-.84.66-1.53,1.11-2.07.45-.54,1.03-.81,1.73-.81,1,0,1.77.32,2.31.95.55.63.82,1.43.82,2.39,0,.61-.23,1.62-.69,3.05-.46,1.43-1.03,3.16-1.71,5.21-.25.76-.53,1.54-.82,2.34-.29.8-.56,1.57-.81,2.3-.24.73-.44,1.41-.6,2.02-.16.62-.23,1.11-.23,1.48,0,.35.05.7.15,1.04.1.34.15.71.15,1.1,0,.88-.23,1.61-.7,2.2s-1.11,1.18-1.93,1.79c-.04.16-.09.4-.16.73-.07.33-.15.67-.25,1.03l-.38,1.49c-.27,1.07-.5,2.15-.69,3.22-.19,1.07-.35,2.14-.5,3.19s-.3,2.11-.47,3.16c-.17,1.05-.38,2.1-.63,3.13-.1.39-.27.74-.51,1.04-.24.3-.53.56-.85.78-.32.21-.66.38-1.01.5s-.68.18-1,.18c-.47,0-.85-.11-1.14-.32-.29-.22-.52-.47-.69-.76-.17-.29-.28-.6-.34-.91s-.09-.58-.09-.79c0-.23.03-.62.1-1.16.07-.54.16-1.17.28-1.89s.25-1.5.41-2.34c.16-.84.31-1.69.47-2.55.37-1.99.8-4.17,1.29-6.53h-.21c-.51,0-1.05.05-1.64.16s-1.29.26-2.11.45c-.37.12-.92.27-1.66.47s-1.57.42-2.5.67-1.95.53-3.03.82-2.16.59-3.24.88l-7.94,2.17c-.37.76-.72,1.59-1.04,2.48s-.62,1.79-.89,2.7c-.27.91-.52,1.8-.75,2.68-.22.88-.44,1.71-.63,2.49-.06.21-.18.45-.37.7-.19.25-.4.49-.64.7-.24.21-.5.39-.76.53-.26.14-.51.21-.75.21-.43,0-.79-.09-1.07-.28-.28-.19-.51-.43-.69-.73-.18-.3-.3-.64-.37-1.03-.07-.38-.1-.76-.1-1.13Z"/>
  <path class="cls-1" d="M78.69,46.08c.29-1.13.64-2.45,1.05-3.96s.84-3.1,1.3-4.78c.46-1.68.92-3.4,1.39-5.16s.91-3.47,1.32-5.13c.02-.08.09-.21.21-.4s.28-.37.5-.56c.21-.19.49-.35.82-.48.33-.14.72-.21,1.17-.21.33,0,.65.03.97.1.31.07.59.17.83.31.24.14.44.32.59.54s.22.48.22.78v.19c0,.07-.01.13-.03.19l-.82,3.11c-.92,3.48-1.85,6.96-2.8,10.46-.95,3.5-1.87,7-2.77,10.52-.04.12-.1.26-.18.44-.08.18-.19.35-.32.53-.14.18-.3.32-.5.44-.2.12-.43.18-.7.18-.51,0-.96-.1-1.35-.31-.39-.21-.72-.46-1-.78-.27-.31-.48-.66-.62-1.03-.14-.37-.21-.72-.21-1.05v-.26c0-.08.02-.17.06-.26l.85-3.43ZM86.34,15.76c.1-.41.27-.91.53-1.49.25-.59.7-1.11,1.35-1.58.31-.18.69-.34,1.14-.48.45-.15.77-.22.97-.22s.4.07.6.21c.21.14.39.28.54.44.19.2.38.41.56.64.49.04.81.22.95.53.15.31.22.68.22,1.11,0,.31-.03.6-.09.85-.06.25-.11.46-.15.62-.12.41-.34.79-.67,1.13-.33.34-.71.63-1.14.88-.43.24-.88.44-1.35.57-.47.14-.88.21-1.23.21-.45,0-.8-.08-1.04-.23-.24-.16-.55-.49-.92-1-.22-.29-.34-.52-.37-.69-.03-.17-.04-.31-.04-.42,0-.21.01-.41.04-.57.03-.17.06-.33.1-.48Z"/>
  <path class="cls-1" d="M106.26,10.99c.51,0,.92.05,1.25.16.32.11.57.28.75.51s.3.54.37.91c.07.37.1.81.1,1.32,0,.45-.01.87-.04,1.27-.03.4-.08.81-.15,1.22-.07.41-.15.84-.25,1.29-.1.45-.21.94-.32,1.46-.37,1.56-.82,3.12-1.33,4.67-.52,1.55-1.03,3.15-1.54,4.79l-1.08,3.57c1.11-.29,2.16-.7,3.15-1.23.99-.53,1.95-1.14,2.89-1.85.94-.7,1.86-1.49,2.75-2.36s1.82-1.78,2.75-2.74c1.46-1.5,2.92-3.06,4.37-4.67s2.84-3.26,4.19-4.94c.21-.27.44-.66.67-1.17.23-.51.51-1.02.83-1.52.32-.51.7-.95,1.13-1.32.43-.37.95-.56,1.55-.56.39,0,.74.13,1.04.38.3.25.55.57.75.95s.34.8.44,1.26c.1.46.15.88.15,1.27,0,.33-.03.62-.09.85-1.09,1.64-2.27,3.22-3.52,4.73-1.25,1.51-2.55,2.97-3.91,4.38s-2.75,2.78-4.19,4.12-2.88,2.65-4.35,3.94c2.01.68,3.85,1.57,5.52,2.67s3.14,2.42,4.42,3.97,2.36,3.35,3.24,5.41,1.52,4.37,1.93,6.94c-.12.35-.28.69-.5,1.01s-.47.6-.76.85c-.29.24-.62.44-1,.6-.37.16-.77.23-1.2.23-.68,0-1.22-.14-1.6-.42-.38-.28-.67-.64-.88-1.07-.21-.43-.35-.91-.44-1.44s-.17-1.03-.25-1.49l-.12-.73c-.21-1.31-.61-2.53-1.19-3.68s-1.25-2.16-2.02-3.06-1.61-1.67-2.52-2.3-1.8-1.12-2.68-1.45l-.85-.32c-.35-.14-.75-.28-1.19-.44s-.89-.3-1.35-.44-.9-.25-1.33-.34c-.43-.09-.81-.13-1.14-.13-.2,0-.58.11-1.14.34-.57.22-1.19.47-1.86.75s-1.33.54-1.98.79-1.12.42-1.44.5l-.73,2.99c-.22.88-.37,1.72-.45,2.53s-.15,1.58-.19,2.3c-.02.61-.04,1.26-.07,1.96s-.13,1.36-.31,1.96-.47,1.11-.89,1.52c-.42.41-1.04.62-1.86.62-.51,0-.91-.15-1.22-.44-.3-.29-.53-.66-.69-1.1-.16-.44-.25-.91-.29-1.41-.04-.5-.06-.95-.06-1.36,0-.51.03-1.08.1-1.71.07-.63.16-1.28.26-1.95.11-.66.23-1.32.37-1.98.14-.65.27-1.25.41-1.8l6.83-27.48c.35-1.41,1.27-2.11,2.75-2.11Z"/>
  <path class="cls-1" d="M149.47,50.19c0-.57.07-1.25.21-2.04s.21-1.77.21-2.94c-.64.47-1.36,1.03-2.14,1.67s-1.59,1.26-2.43,1.85-1.67,1.08-2.5,1.48-1.61.6-2.33.6c-.59,0-1.14-.09-1.67-.26s-.98-.41-1.35-.7c-1.04-.82-1.78-1.64-2.24-2.46s-.69-1.78-.69-2.87c0-.49.04-1,.13-1.52s.22-1.13.4-1.82c.74-3.09,2.02-5.94,3.82-8.57s4.05-4.87,6.72-6.72c1.04-.72,2.07-1.19,3.11-1.39s2.06-.31,3.08-.31c.45,0,.95.03,1.51.09s1.06.12,1.51.18c.45-.1.82-.17,1.1-.21.28-.04.58-.06.89-.06.59,0,1.07.08,1.46.23.39.16.7.37.94.63s.41.57.51.91.16.7.16,1.07c0,.51-.08.99-.23,1.45s-.31.92-.47,1.39l-3.87,15.44c-.08.84-.15,1.61-.21,2.31s-.18,1.36-.35,1.96l-.22.66c-.09.26-.23.52-.42.76s-.44.45-.73.63-.67.26-1.14.26c-.61,0-1.09-.04-1.45-.12-.36-.08-.64-.19-.83-.34s-.32-.32-.38-.53-.09-.44-.09-.72ZM139.75,41.34c-.08.27-.16.66-.25,1.17s-.13,1.02-.13,1.52.08,1,.23,1.42.5.63,1.03.63c.82,0,1.59-.18,2.3-.54s1.38-.8,2.01-1.3c.84-.68,1.69-1.45,2.56-2.3s1.69-1.74,2.46-2.68,1.46-1.9,2.05-2.89,1.03-1.97,1.3-2.94c.16-.57.29-1.22.4-1.96s.16-1.41.16-1.99c0-.25-.06-.5-.18-.75s-.34-.37-.67-.37c-.96,0-1.92.19-2.89.56s-1.9.87-2.8,1.49-1.75,1.36-2.56,2.21-1.55,1.76-2.21,2.72-1.24,1.96-1.71,2.99-.84,2.03-1.1,3Z"/>
  <path class="cls-1" d="M165.56,47.75c1.11-4.47,2.27-8.89,3.46-13.26s2.34-8.78,3.46-13.26c.14-.59.27-1.14.41-1.67s.26-1.05.38-1.58.21-1.06.28-1.6c.07-.54.1-1.1.1-1.68,0-.45-.03-.86-.09-1.23-.06-.37-.09-.79-.09-1.26s.06-.93.18-1.44c.29-1.19.71-2.08,1.25-2.67s1.35-.88,2.45-.88c.45,0,.88.04,1.3.13s.83.19,1.25.31c.45.14.91.25,1.39.35.48.1.96.15,1.45.15.39,0,.77-.02,1.14-.06.37-.04.8-.08,1.27-.12.48-.04,1.04-.08,1.7-.12.65-.04,1.48-.06,2.48-.06.55,0,1.19.02,1.93.06.74.04,1.51.13,2.31.26.8.14,1.61.34,2.43.6s1.59.62,2.3,1.07c.71.45,1.34,1,1.89,1.66.55.65.96,1.44,1.23,2.36.14.45.23.86.28,1.23.05.37.07.73.07,1.08,0,1.19-.3,2.36-.91,3.52-.68,1.31-1.61,2.53-2.77,3.68s-2.51,2.22-4.06,3.24c-.61.41-1.31.83-2.11,1.27s-1.59.86-2.36,1.26-1.46.77-2.08,1.1-1.04.59-1.27.76c.68.33,1.37.68,2.05,1.04s1.38.8,2.09,1.3,1.44,1.12,2.17,1.85,1.49,1.61,2.29,2.65,1.61,2.28,2.46,3.71,1.73,3.11,2.65,5.04c.23.47.35.97.35,1.49,0,.41-.08.82-.25,1.23s-.39.78-.67,1.11-.62.6-1.01.81-.81.31-1.26.31c-.68,0-1.25-.25-1.7-.76s-.88-1.17-1.29-1.99-.83-1.75-1.27-2.78-.98-2.08-1.63-3.13c-.7-1.13-1.48-2.21-2.33-3.22s-1.75-1.89-2.71-2.64-1.94-1.33-2.96-1.77c-1.02-.44-2.03-.66-3.05-.66h-.44c-.61,0-1.15.05-1.63.16s-.94.2-1.39.28c-.61-.21-1.04-.57-1.32-1.05s-.41-1.04-.41-1.64v-.41l-2.34,9.23c-.08.29-.19.69-.32,1.2s-.29,1.06-.47,1.67-.36,1.24-.54,1.9-.36,1.29-.53,1.88-.31,1.11-.44,1.58-.22.82-.28,1.05c-.27.49-.62.87-1.04,1.16-.42.28-.87.42-1.36.42-.86,0-1.46-.26-1.79-.78-.33-.52-.5-1.12-.5-1.8,0-.27.02-.55.06-.83s.09-.55.15-.81ZM179.94,14.71c-.12.39-.29.96-.51,1.7-.22.74-.47,1.58-.75,2.52s-.57,1.94-.88,3.02c-.31,1.07-.62,2.15-.94,3.24-.31,1.08-.62,2.13-.91,3.15s-.56,1.92-.79,2.72c.39-.51.98-.96,1.76-1.36s1.66-.78,2.64-1.13c.76-.27,1.7-.66,2.81-1.16,1.11-.5,2.28-1.07,3.5-1.71,1.22-.65,2.44-1.34,3.66-2.1,1.22-.75,2.31-1.52,3.28-2.31s1.75-1.58,2.36-2.37.91-1.56.91-2.3-.25-1.29-.76-1.71c-.51-.42-1.14-.74-1.9-.95-.76-.21-1.6-.36-2.5-.42-.91-.07-1.75-.1-2.53-.1-1.41,0-2.81.09-4.22.26-1.41.18-2.81.52-4.22,1.03Z"/>
  <path class="cls-1" d="M206.1,46.08c.29-1.13.64-2.45,1.05-3.96s.84-3.1,1.3-4.78.92-3.4,1.39-5.16.91-3.47,1.32-5.13c.02-.08.09-.21.21-.4s.28-.37.5-.56.49-.35.82-.48.72-.21,1.17-.21c.33,0,.65.03.97.1s.59.17.83.31.44.32.59.54.22.48.22.78v.19c0,.07,0,.13-.03.19l-.82,3.11c-.92,3.48-1.85,6.96-2.8,10.46s-1.87,7-2.77,10.52c-.04.12-.1.26-.18.44s-.19.35-.32.53-.3.32-.5.44-.43.18-.7.18c-.51,0-.96-.1-1.35-.31s-.72-.46-1-.78c-.27-.31-.48-.66-.62-1.03-.14-.37-.21-.72-.21-1.05v-.26c0-.08.02-.17.06-.26l.85-3.43ZM213.75,15.76c.1-.41.27-.91.53-1.49s.7-1.11,1.35-1.58c.31-.18.69-.34,1.14-.48s.77-.22.97-.22.4.07.6.21c.21.14.39.28.54.44.2.2.38.41.56.64.49.04.81.22.95.53.15.31.22.68.22,1.11,0,.31-.03.6-.09.85-.06.25-.11.46-.15.62-.12.41-.34.79-.67,1.13-.33.34-.71.63-1.14.88-.43.24-.88.44-1.35.57-.47.14-.88.21-1.23.21-.45,0-.8-.08-1.04-.23-.24-.16-.55-.49-.92-1-.21-.29-.34-.52-.37-.69-.03-.17-.04-.31-.04-.42,0-.21.01-.41.04-.57.03-.17.06-.33.1-.48Z"/>
  <path class="cls-1" d="M223.57,38.32c.43-1.78.99-3.63,1.68-5.57s1.42-3.91,2.18-5.92,1.51-4.06,2.26-6.14,1.38-4.16,1.9-6.23c.14-.51.25-.98.35-1.41.1-.43.2-.89.29-1.38.23-.51.55-.9.95-1.17.4-.27.83-.41,1.3-.41.43,0,.83.07,1.22.21.38.14.71.36,1,.66.28.3.51.69.67,1.16s.25,1.03.25,1.67c0,.7-.11,1.5-.32,2.4-.76,1.95-1.53,3.87-2.31,5.74s-1.54,3.71-2.27,5.51-1.41,3.57-2.04,5.33-1.16,3.5-1.61,5.21c-.04.14-.12.43-.23.89s-.24,1.01-.37,1.66-.24,1.33-.34,2.07-.15,1.44-.15,2.12c0,.47.03.91.09,1.33s.16.79.29,1.1.32.56.56.73.53.26.88.26c.74,0,1.65-.39,2.72-1.16s2.24-1.82,3.49-3.15,2.53-2.88,3.85-4.66,2.6-3.68,3.85-5.71,2.41-4.12,3.49-6.27c1.07-2.15,1.98-4.27,2.72-6.36.18-.37.39-.61.64-.72.25-.11.59-.16,1-.16.76,0,1.4.23,1.92.69.52.46.78,1.05.78,1.77,0,.18-.02.34-.06.5-.04.16-.1.34-.18.56l-.41,1.2c-.31.92-.61,1.76-.89,2.53s-.51,1.5-.69,2.18c-.25.98-.46,1.87-.62,2.68s-.28,1.57-.37,2.29-.15,1.41-.18,2.09-.04,1.38-.04,2.08c0,.27.02.67.07,1.2s.12,1.11.22,1.74.23,1.28.4,1.93.36,1.25.59,1.8.49.99.79,1.33.65.51,1.04.51c.61,0,1.25-.25,1.92-.75s1.35-1.18,2.04-2.05,1.37-1.89,2.07-3.06,1.37-2.43,2.02-3.78,1.28-2.74,1.88-4.19,1.14-2.88,1.64-4.29.94-2.78,1.32-4.1c.38-1.32.69-2.52.92-3.62.21-1.04.4-2.04.56-3.02.16-.98.31-1.95.47-2.93.16-.98.33-1.96.51-2.94.19-.99.42-2,.69-3.03.1-.37.24-.75.44-1.14.2-.39.43-.75.72-1.07s.59-.59.92-.79.67-.31,1.03-.31c.88,0,1.47.24,1.79.72.31.48.47,1.27.47,2.39,0,.82-.07,1.78-.22,2.87-.15,1.09-.33,2.24-.56,3.44s-.47,2.42-.75,3.65-.55,2.39-.82,3.49c-.55,2.23-1.27,4.54-2.17,6.93s-1.9,4.73-3,7-2.28,4.42-3.52,6.43-2.49,3.74-3.74,5.19c-.43.51-.94,1.03-1.52,1.55s-1.22,1.01-1.89,1.44c-.67.43-1.36.79-2.05,1.07-.69.28-1.36.42-2.01.42-1.35,0-2.48-.4-3.38-1.19s-1.65-1.85-2.23-3.16-1.02-2.82-1.32-4.51-.52-3.43-.66-5.23c-1.09,1.62-2.09,3.07-3,4.34s-1.83,2.44-2.77,3.52c-.7.8-1.49,1.67-2.37,2.59s-1.81,1.79-2.8,2.58-2,1.45-3.03,1.96c-1.04.52-2.05.78-3.05.78-1.15,0-2.11-.2-2.89-.6-.77-.4-1.39-.95-1.86-1.66s-.81-1.53-1.01-2.49-.31-1.99-.31-3.11c0-1.29.11-2.62.32-3.98s.49-2.73.82-4.1Z"/>
  <path class="cls-1" d="M277.12,40.23c.29-1.19.75-2.46,1.36-3.79s1.42-2.69,2.42-4.06,2.19-2.71,3.59-4.01,3.01-2.53,4.85-3.66c.29-.18.74-.37,1.35-.57s1.23-.33,1.88-.37c.76-.82,1.79-1.23,3.08-1.23,1.52,0,2.81.39,3.85,1.16,1.04.77,1.91,1.82,2.59,3.15.21.43.42.85.6,1.26s.34.84.47,1.3.23.95.31,1.48.12,1.12.12,1.79c0,1.54-.24,3.12-.73,4.72s-1.18,3.16-2.08,4.69-1.99,2.98-3.27,4.38-2.7,2.65-4.26,3.76c-1.05.76-2.22,1.35-3.5,1.77-1.28.42-2.71.63-4.29.63s-2.81-.2-3.91-.6c-1.1-.4-2.02-.97-2.75-1.71s-1.28-1.63-1.64-2.67-.54-2.19-.54-3.46.18-2.55.53-3.96ZM281.98,40.61c-.12.45-.2.87-.25,1.27s-.07.79-.07,1.16c0,.64.08,1.25.25,1.8s.43,1.04.81,1.44.83.71,1.39.94,1.24.34,2.04.34c1.48,0,2.87-.38,4.15-1.13s2.42-1.69,3.41-2.83,1.83-2.35,2.5-3.65,1.15-2.5,1.42-3.59c.18-.68.33-1.33.45-1.93s.19-1.16.19-1.67-.09-.98-.28-1.42-.42-.93-.72-1.48c-.18-.33-.35-.68-.53-1.04s-.33-.72-.47-1.07c-.16.27-.32.51-.5.72s-.44.39-.79.56-.83.32-1.44.45-1.4.25-2.37.35c-.64.21-1.3.55-1.96,1s-1.31.98-1.95,1.58-1.24,1.26-1.82,1.96-1.09,1.42-1.55,2.15-.86,1.45-1.2,2.15-.58,1.35-.72,1.93Z"/>
  <path class="cls-1" d="M316.73,46.7c0,1.35-.52,2.51-1.55,3.5s-2.22,1.48-3.54,1.48c-1.02,0-1.88-.36-2.59-1.07s-1.07-1.58-1.07-2.59c0-1.35.54-2.53,1.63-3.56s2.28-1.54,3.59-1.54c1.02,0,1.86.36,2.53,1.08s1.01,1.62,1.01,2.7ZM326.46,10.28c0,.82-.4,2.06-1.2,3.72-.61,1.27-1.8,4.29-3.59,9.07-1.79,4.78-2.88,7.73-3.27,8.86s-.74,2.52-1.05,4.16c-.25,1.27-1.13,1.9-2.64,1.9-1.93,0-2.9-.96-2.9-2.87,0-2.01,1.2-5.87,3.59-11.59,2.39-5.71,4.23-9.63,5.52-11.75,1.29-2.12,2.53-3.18,3.72-3.18s1.82.56,1.82,1.67Z"/>
</svg>